Coordinates
version=1
nRows=18
nColumns=26
inDegrees=yes

Units are S.I. units (second, meters, Newtons, ...)
Angles are in degrees.

endheader
time	pelvis_tilt	pelvis_list	pelvis_rotation	pelvis_tx	pelvis_ty	pelvis_tz	hip_flexion_r	hip_adduction_r	hip_rotation_r	knee_angle_r	knee_angle_r_beta	ankle_angle_r	subtalar_angle_r	mtp_angle_r	hip_flexion_l	hip_adduction_l	hip_rotation_l	knee_angle_l	knee_angle_l_beta	ankle_angle_l	subtalar_angle_l	mtp_angle_l	lumbar_extension	lumbar_bending	lumbar_rotation
     62.68108844	     -8.73635686	     -1.24671245	     -3.66404245	      0.34193878	      1.00910559	      0.15403975	     -4.59116731	     -1.64567657	      0.73424942	     62.92262847	     62.92262847	    -22.32608643	    -33.49552793	      0.00000000	     30.51706955	     -0.61946746	      2.62040627	     25.79215900	     25.79215900	     -4.65027070	    -25.13004934	      0.00000000	     -6.16984670	     -2.76985853	      9.05246243
     62.69108844	     -9.42482639	      0.02642784	     -3.01697492	      0.33751550	      1.00057316	      0.15174409	     -0.82678676	     -2.96049241	      0.76863231	     69.34848755	     69.34848755	    -21.18286206	    -33.20013281	      0.00000000	     32.49473961	      1.16772144	      2.16910640	     30.55369290	     30.55369290	     -2.27996662	    -25.89990524	      0.00000000	     -5.85280799	     -4.27630044	      7.52495781
     62.70108844	     -9.35102076	      1.25640844	     -2.25524516	      0.33314832	      0.99381776	      0.14941481	      2.01976784	     -4.18165800	      0.97975084	     75.01522758	     75.01522758	    -20.18607288	    -32.89739981	      0.00000000	     33.53614288	      2.91963301	      2.06085895	     35.11923148	     35.11923148	     -0.25145370	    -26.42328537	      0.00000000	     -6.56377266	     -5.78562348	      6.04966334
     62.71108844	     -9.19731138	      2.57692437	     -1.45643621	      0.32888154	      0.98810736	      0.14769751	      4.83418481	     -5.40039584	      1.37239863	     80.16011412	     80.16011412	    -19.04138234	    -32.39654157	      0.00000000	     33.60248255	      4.82234018	      2.49924848	     38.33662829	     38.33662829	      1.97781821	    -26.65765872	      0.00000000	     -7.46258844	     -7.45266447	      4.54643775
     62.72108844	     -9.25276441	      3.79371283	     -0.43799984	      0.32456711	      0.98310337	      0.14646055	      7.92720702	     -6.49245328	      1.60875860	     84.79629082	     84.79629082	    -17.78496817	    -31.89501062	      0.00000000	     33.06802604	      6.67545978	      3.19116829	     40.13268178	     40.13268178	      4.25342229	    -26.62109655	      0.00000000	     -8.23516838	     -8.98210033	      2.89944613
     62.73108844	     -9.91838826	      4.89895851	      0.46848349	      0.32009160	      0.97817320	      0.14542970	     11.86481140	     -7.46872180	      2.10797779	     89.02878046	     89.02878046	    -16.32345282	    -30.95091106	      0.00000000	     32.81871180	      8.21048577	      3.41409567	     41.23121125	     41.23121125	      6.31533028	    -26.33157064	      0.00000000	     -8.27983868	    -10.31286625	      1.45027310
     62.74108844	    -11.10423851	      5.46268330	      0.94796796	      0.31546019	      0.97346401	      0.14475007	     16.55880722	     -7.67888135	      3.16304063	     92.71495811	     92.71495811	    -14.76319274	    -29.55712562	      0.00000000	     33.01953275	      8.97457580	      3.29294304	     42.13578566	     42.13578566	      7.91532634	    -26.43190449	      0.00000000	     -7.60603026	    -10.99897616	      0.45372226
     62.75108844	    -11.87034300	      5.65618647	      1.31298637	      0.31149463	      0.97041733	      0.14366034	     20.71110088	     -7.51643600	      4.08435007	     95.53228910	     95.53228910	    -13.71504749	    -28.56777699	      0.00000000	     32.50813762	      9.38220544	      3.38323389	     42.69227313	     42.69227313	      9.53350856	    -26.29080398	      0.00000000	     -7.27133695	    -11.16503613	     -0.68329711
     62.76108844	    -12.03460515	      5.66645417	      1.32160821	      0.30844098	      0.96958327	      0.14272000	     24.09443673	     -7.12924457	      5.01726866	     97.45068643	     97.45068643	    -12.63087942	    -27.40656355	      0.00000000	     31.05114178	      9.37723555	      3.30001388	     42.82707657	     42.82707657	     11.22380754	    -25.60596552	      0.00000000	     -7.44521867	    -11.01655942	     -1.45444128
     62.77108844	    -11.86264316	      5.48522096	      1.24309884	      0.30599423	      0.97082283	      0.14184638	     26.92662451	     -6.52829426	      5.66808176	     98.42399263	     98.42399263	    -12.21509640	    -27.02596935	      0.00000000	     28.92070596	      9.20390711	      3.56014886	     42.42609932	     42.42609932	     12.03559258	    -25.40164671	      0.00000000	     -7.93369999	    -10.58350371	     -2.28881664
     62.78108844	    -11.86065922	      5.29818994	      0.82820502	      0.30388936	      0.97276890	      0.14143013	     29.88292861	     -5.79019052	      6.49648057	     98.81536976	     98.81536976	    -10.77720174	    -25.29138297	      0.00000000	     26.83325888	      8.75028696	      3.39055155	     41.73445495	     41.73445495	     13.42493337	    -23.95127261	      0.00000000	     -8.07121270	    -10.13324695	     -2.77687870
     62.79108844	    -12.06157452	      4.94310203	      0.58646658	      0.30192478	      0.97579110	      0.14069531	     32.82007841	     -4.97501746	      6.81085696	     98.37773615	     98.37773615	    -10.24132270	    -24.99957785	      0.00000000	     24.71332034	      8.32035854	      3.66369868	     40.50861466	     40.50861466	     13.61863960	    -23.55257365	      0.00000000	     -7.98691771	     -9.41536470	     -3.57691384
     62.80108844	    -12.23504040	      4.21610300	      0.37154645	      0.30048956	      0.97996893	      0.14005760	     35.36963675	     -3.83930100	      6.70378666	     97.13588126	     97.13588126	     -9.29789920	    -24.33549614	      0.00000000	     22.33952632	      7.50285880	      4.02306895	     38.86431444	     38.86431444	     13.50656660	    -23.10727612	      0.00000000	     -7.86786579	     -8.23348560	     -4.26833039
     62.81108844	    -12.85798539	      3.70664759	      0.17377718	      0.29920756	      0.98439594	      0.13930139	     38.20038802	     -2.93589995	      6.55915930	     95.34697484	     95.34697484	     -8.57738283	    -24.08790238	      0.00000000	     20.27131048	      6.89567233	      4.26469331	     36.75920577	     36.75920577	     12.91584420	    -22.34383364	      0.00000000	     -7.20348888	     -7.27861616	     -5.17589019
     62.82108844	    -13.00514671	      2.36684882	      0.11859680	      0.29912281	      0.99043839	      0.13870657	     39.92547117	     -1.41596399	      5.58982000	     92.57724308	     92.57724308	     -7.65919072	    -23.63299057	      0.00000000	     17.53667854	      5.45589355	      4.89531792	     34.42075477	     34.42075477	     11.58386452	    -22.08770542	      0.00000000	     -7.01006675	     -5.35492022	     -6.04075041
     62.83108844	    -13.31709639	      1.17764976	     -0.00501958	      0.29957975	      0.99671060	      0.13831548	     41.56674992	     -0.06739967	      4.62723811	     89.25780683	     89.25780683	     -7.15720923	    -23.67406003	      0.00000000	     14.94644517	      4.06012706	      5.24826394	     31.90335343	     31.90335343	      9.78506439	    -21.38564725	      0.00000000	     -6.57094545	     -3.64328014	     -6.98105665
     62.84108844	    -13.81430649	     -0.17621316	     -0.10422461	      0.30033580	      1.00307531	      0.13803537	     43.09113190	      1.34900500	      3.43173617	     85.34108073	     85.34108073	     -6.89112228	    -23.88243896	      0.00000000	     12.65486201	      2.42363940	      5.49844701	     29.46200077	     29.46200077	      7.65118740	    -20.56335351	      0.00000000	     -5.90170663	     -1.76681813	     -7.83712983
     62.85108844	    -14.31289672	     -1.62791538	     -0.18371056	      0.30153791	      1.00952777	      0.13786391	     44.25497228	      2.80791111	      2.12733934	     80.79640467	     80.79640467	     -6.86953616	    -24.34495711	      0.00000000	     10.42403804	      0.61861751	      5.56518449	     27.00256774	     27.00256774	      5.14520202	    -19.50132573	      0.00000000	     -5.20466827	      0.20304576	     -8.63665221
